<?xml version="1.0" encoding="utf-8"?>
<!-- Generator: Adobe Illustrator 28.5.0, SVG Export Plug-In . SVG Version: 9.03 Build 54727)  -->
<svg version="1.1" id="Calque_1" xmlns="http://www.w3.org/2000/svg" xmlns:xlink="http://www.w3.org/1999/xlink" x="0px" y="0px"
	 viewBox="0 0 573.032 222.053" enable-background="new 0 0 573.032 222.053" xml:space="preserve">
<g>
	<g>
		<path fill="#78B72A" d="M18.419,169.44c-22.58-35.848,23.711-72.323,66.52-96.609c11.818-5.22,17.735,5.989,15.398,13.301
			c-1.425,4.459-1.425,4.459-13.712,11.579c-45.767,26.521-68.841,55.781-61.725,78.271c0.098,0.396,0.1,0.997-0.091,1.357
			C22.926,176.377,19.713,171.495,18.419,169.44"/>
		<radialGradient id="SVGID_1_" cx="165.5201" cy="46.0417" r="61.5341" gradientUnits="userSpaceOnUse">
			<stop  offset="0" style="stop-color:#FFFFFF"/>
			<stop  offset="1" style="stop-color:#868686"/>
		</radialGradient>
		<path fill="url(#SVGID_1_)" d="M123.388,60.838c-0.401-7.789,1.877-8.659,23.663-16.983c11.756-3.103,18.641,8.81,14.49,15.952
			c-1.289,2.219-2.694,2.924-4.472,3.818c-5.703,2.865-11.805,4.767-17.648,7.295C128.765,74.289,123.647,65.874,123.388,60.838"/>
		<path fill="#78B72A" d="M0.004,109.923c-0.018-12.829-0.018-13.074,0.848-20.17l0.849-5.659
			C3.59,76.367,9.339,52.853,60.055,24.09c9.026-4.282,11.422,2.07,9.663,6.82c-1.706,4.609-3.137,5.452-14.278,12.013
			C38.89,52.672,0.359,78.757,0.023,110.356L0.004,109.923"/>
		
			<radialGradient id="SVGID_00000041994965654301517130000003790506387878277253_" cx="126.5408" cy="1.1865" r="50.3836" gradientUnits="userSpaceOnUse">
			<stop  offset="0" style="stop-color:#FFFFFF"/>
			<stop  offset="1" style="stop-color:#868686"/>
		</radialGradient>
		<path fill="url(#SVGID_00000041994965654301517130000003790506387878277253_)" d="M91.922,12.61
			c0.456-5.034,3.715-6.235,19.375-12.008c9.359-2.636,15.454,3.975,12.421,8.496c-0.981,1.462-2.209,2.034-3.764,2.757
			c-5.016,2.334-10.295,4.009-15.387,6.154C95.549,21.026,91.6,16.174,91.922,12.61"/>
		<path fill="#78B72A" d="M39.541,192.512c-5.402-4.947-28.503-32.029,47.409-79.54c11.876-5.689,18.513,7.211,15.255,14.649
			c-1.262,2.883-1.262,2.883-10.982,9.065c-15.535,9.882-50.72,35.552-41.933,60.44c0.068,0.316,0.098,0.78-0.034,1.075
			C46.618,198.957,39.828,192.776,39.541,192.512"/>
		
			<radialGradient id="SVGID_00000168806343296756146270000011056658520105118617_" cx="158.9822" cy="88.5796" r="60.2019" gradientUnits="userSpaceOnUse">
			<stop  offset="0" style="stop-color:#FFFFFF"/>
			<stop  offset="1" style="stop-color:#868686"/>
		</radialGradient>
		<path fill="url(#SVGID_00000168806343296756146270000011056658520105118617_)" d="M113.672,105.678
			c-0.328-4.518,2.038-8.013,4.163-9.633c2.559-1.95,22.773-10.96,22.976-11.051c12.123-3.827,18.077,9.069,13.152,16.89
			c-1.473,2.338-2.965,3.142-4.693,4.073c-6.516,3.509-13.473,6.062-20.119,9.288C119.101,118.956,114.038,110.705,113.672,105.678"
			/>
		<path fill="#78B72A" d="M64.88,208.119c-3.591-1.978-13.13-7.234-7.188-23.35c5.391-14.622,21.42-26.971,27.454-31.62
			c9.44-5.374,17.381,5.686,15.915,12.43c-0.541,2.489-0.541,2.489-7.326,7.893c-6.003,4.782-24.968,21.62-16.965,37.505
			c0.04,0.151,0.092,0.352,0.132,0.502C75.703,212.991,68.548,210.14,64.88,208.119"/>
		<path fill="#78B72A" d="M111.282,143.684c-1.31-7.718,0.776-8.755,20.731-18.669c10.942-3.985,15.398,6.987,12.862,13.859
			c-1.18,3.198-3.271,4.664-3.292,4.678c-5.031,3.46-10.736,5.665-16.039,8.619C117.19,155.681,112.057,148.249,111.282,143.684"/>
		<path fill="#78B72A" d="M133.505,221.606c-5.748,0.66-11.177,1.284-14.387-3.591c-3.014-4.577,1.182-10.538,3.198-13.402
			c4.474-3.707,13.208,5.326,13.374,7.469c0.09,1.159-0.894,2.08-0.721,3.257c0.163,1.104,0.506,1.932,0.724,2.299
			c0.705,1.187,1.819,1.979,2.669,2.197c0.713,0.183,1.405,0.108,1.405,0.108c0.088-0.013,0.204-0.03,0.292-0.043
			C139.667,220.019,137.635,221.035,133.505,221.606"/>
		<path fill="#78B72A" d="M97.041,218.427c-5.458-1.359-11.643-2.899-10.752-12.978c1.961-4.025,18.733,4.828,19.777,7.535
			c1.758,4.559,1.758,4.559,4.056,6.32c0.053,0.079,0.124,0.185,0.177,0.265C109.258,220.358,102.444,219.771,97.041,218.427"/>
		<path fill="#78B72A" d="M94.992,199.349c-4.734-3.987-7.342-6.183,11.189-20.677c8.055-4.574,15.538,6.46,13.87,11.909
			c-0.343,1.12-0.343,1.12-4.399,4.672c-0.702,0.614-4.746,4.502-7.03,8.147C105.876,205.989,97.823,201.734,94.992,199.349"/>
		<path fill="#78B72A" d="M2.864,131.657l-1.139-5.727C0.347,111.56,3.924,91.281,44.164,61.77
			c9.096-5.318,13.228,2.692,12.01,9.049c-1.104,5.759-2.662,6.932-12.798,14.568c-10.221,7.7-42.963,35.049-35.137,63.701
			c0.139,0.447,0.321,0.88,0.423,1.339C6.698,144.87,4.196,137.398,2.864,131.657"/>
		<path fill="#78B72A" d="M74.224,49.485c0.372-6.31,0.526-8.922,42.512-26.216c12.106-3.713,17.596,6.688,13.936,12.394
			c-1.52,2.37-1.52,2.37-12.683,7.118c-4.604,1.958-14.535,6.389-29.322,14.058C78.51,61.1,73.933,54.421,74.224,49.485"/>
	</g>
	<g>
		<path fill="#616160" d="M238.536,57.478c-4.22-3.805-9.861-5.729-16.749-5.729c-7.084,0-12.77,2.187-16.902,6.494
			c-4.133,4.308-6.21,9.774-6.21,16.29c0,6.844,1.859,12.288,5.532,16.202c3.958,4.198,9.73,6.341,17.165,6.341
			c5.007,0,9.424-1.006,13.185-2.996c4.264-2.274,7.412-6.45,9.358-12.441c0.044-0.131,0.087-0.285,0.087-0.437
			c0-0.612-0.481-1.093-1.093-1.093h-5.728c-0.459,0-0.853,0.284-1.028,0.7c-2.361,6.013-7.128,8.921-14.562,8.921
			c-9.096,0-14.037-3.98-15.043-12.157h37.28c0.612,0,1.093-0.503,1.093-1.093v-3.477C244.921,66.53,242.778,61.304,238.536,57.478z
			 M206.635,70.4c0.721-3.433,2.274-6.078,4.723-8.046c2.711-2.165,6.21-3.28,10.386-3.28c4.657,0,8.353,1.312,11.02,3.892
			c2.011,1.946,3.28,4.439,3.761,7.434H206.635z"/>
	</g>
	<g>
		<path fill="#616160" d="M287.602,58.331c-4.089-4.373-9.818-6.581-17.011-6.581c-6.056,0-11.064,1.705-14.956,5.116v-3.105
			c0-0.612-0.481-1.093-1.093-1.093h-5.576c-0.59,0-1.093,0.481-1.093,1.093v55.472c0,0.59,0.503,1.093,1.093,1.093h5.576
			c0.612,0,1.093-0.503,1.093-1.093V92.791c3.892,3.411,8.943,5.116,15.043,5.116c7.259,0,12.988-2.274,17.011-6.778
			c3.783-4.111,5.685-9.643,5.685-16.421C293.375,67.974,291.429,62.463,287.602,58.331z M281.939,86.056
			c-2.624,3.039-6.21,4.526-10.976,4.526c-10.32,0-15.328-5.248-15.328-16.049c0-4.592,1.399-8.353,4.154-11.195
			c2.755-2.82,6.538-4.264,11.261-4.264c4.613,0,8.09,1.399,10.692,4.242c2.58,2.843,3.87,6.713,3.87,11.479
			C285.612,79.453,284.388,83.235,281.939,86.056z"/>
	</g>
	<g>
		<path fill="#616160" d="M337.499,57.587c-4.089-4.504-9.818-6.778-17.033-6.778c-6.122,0-11.173,1.727-15.021,5.095V37.799
			c0-0.59-0.481-1.093-1.093-1.093h-5.576c-0.612,0-1.093,0.503-1.093,1.093V95.13c0,0.612,0.481,1.093,1.093,1.093h5.576
			c0.612,0,1.093-0.481,1.093-1.093v-3.498c3.979,3.542,9.008,5.357,14.956,5.357c7.194,0,12.922-2.23,16.989-6.603
			c3.848-4.067,5.794-9.555,5.794-16.268C343.184,67.339,341.26,61.785,337.499,57.587z M331.749,85.203
			c-2.58,2.996-6.144,4.439-10.889,4.439c-4.745,0-8.396-1.399-11.217-4.307c-2.799-2.864-4.198-6.581-4.198-11.064
			c0-5.029,1.29-9.03,3.805-11.895c2.492-2.799,6.363-4.22,11.523-4.22c4.81,0,8.418,1.465,11.042,4.504
			c2.405,2.777,3.608,6.603,3.608,11.37C335.422,78.687,334.175,82.448,331.749,85.203z"/>
	</g>
	<g>
		<path fill="#616160" d="M385.384,83.913c0,4.789-2.23,8.44-6.669,10.824c-3.127,1.662-7.172,2.492-12.07,2.492
			c-13.6,0-20.51-6.297-20.51-18.738c0-0.59,0.481-1.093,1.093-1.093h5.751c0.59,0,1.093,0.503,1.093,1.093
			c0,4.133,0.962,7.106,2.886,8.79c1.946,1.749,5.226,2.624,9.774,2.624c3.127,0,5.707-0.481,7.609-1.422
			c2.099-1.049,3.127-2.514,3.127-4.526c0-2.405-2.405-4.154-7.019-5.182c-0.393-0.066-3.214-0.481-8.44-1.268
			c-9.358-1.377-14.103-5.554-14.103-12.419c0-4.417,1.924-7.915,5.751-10.386c3.192-2.011,7.084-3.039,11.545-3.039
			c13.163,0,19.876,5.663,19.941,16.88c0,0.284-0.131,0.569-0.328,0.765c-0.197,0.197-0.481,0.328-0.766,0.328h-5.838
			c-0.612,0-1.093-0.503-1.093-1.093c0-3.455-0.853-5.926-2.558-7.325c-1.771-1.487-4.767-2.23-8.921-2.23
			c-2.777,0-5.139,0.525-6.953,1.553c-1.924,1.159-2.842,2.624-2.842,4.504c0,0.853,0,3.499,6.8,4.679
			c1.421,0.284,4.329,0.787,8.921,1.531C380.727,72.828,385.384,77.069,385.384,83.913z"/>
	</g>
	<g>
		<path fill="#78B72A" d="M243.959,155.719c-1.355,5.554-4.154,9.643-8.352,12.157c-3.652,2.187-8.025,3.28-13.054,3.28
			c-7.062,0-12.769-2.011-16.968-5.991c-4.198-4.002-6.319-9.358-6.319-15.94c0-6.909,2.165-12.594,6.428-16.902
			c4.286-4.307,10.255-6.494,17.799-6.494c6.516,0,11.72,1.924,15.459,5.729c2.034,2.099,3.564,4.963,4.504,8.506
			c0.131,0.503-0.109,1.049-0.59,1.268l-5.051,2.449c-0.153,0.066-0.328,0.109-0.481,0.109s-0.306-0.022-0.459-0.088
			c-0.284-0.131-0.503-0.393-0.59-0.721c-1.006-3.586-2.514-6.166-4.504-7.653c-1.99-1.509-4.832-2.252-8.462-2.252
			c-5.247,0-9.315,1.465-12.092,4.373c-2.799,2.908-4.22,6.822-4.22,11.654c0,4.548,1.334,8.047,4.023,10.692
			c2.668,2.602,6.516,3.936,11.436,3.936c3.498,0,6.56-0.787,9.096-2.318c2.449-1.487,4.111-4.33,4.942-8.462
			c0.066-0.328,0.284-0.59,0.569-0.743c0.153-0.087,0.328-0.131,0.503-0.131c0.153,0,0.284,0.022,0.415,0.087l5.335,2.187
			C243.828,154.648,244.09,155.194,243.959,155.719z"/>
	</g>
	<g>
		<path fill="#78B72A" d="M286.269,132.192c-4.22-4.22-10.014-6.363-17.208-6.363c-7.172,0-12.988,2.143-17.23,6.363
			c-4.242,4.22-6.406,9.708-6.406,16.356c0,6.625,2.143,12.113,6.319,16.29c4.198,4.198,9.971,6.319,17.165,6.319
			c7.172,0,12.988-2.121,17.252-6.297c4.286-4.198,6.45-9.686,6.45-16.311C292.609,141.9,290.488,136.412,286.269,132.192z
			 M280.627,159.611c-2.82,2.799-6.734,4.22-11.654,4.22c-4.898,0-8.79-1.421-11.588-4.22c-2.821-2.843-4.198-6.45-4.198-11.064
			c0-4.679,1.356-8.331,4.154-11.173c2.777-2.777,6.691-4.198,11.632-4.198c5.029,0,8.965,1.399,11.742,4.154
			c2.755,2.777,4.154,6.56,4.154,11.217C284.869,153.161,283.47,156.768,280.627,159.611z"/>
	</g>
	<g>
		<path fill="#78B72A" d="M336.428,141.616v27.529c0,0.59-0.481,1.093-1.093,1.093h-5.576c-0.59,0-1.093-0.503-1.093-1.093v-26.698
			c0-3.061-0.94-5.292-2.886-6.866c-1.99-1.596-4.811-2.405-8.418-2.405c-4.242,0-7.587,1.181-9.949,3.542
			c-2.405,2.405-3.564,5.488-3.564,9.424v23.002c0,0.59-0.503,1.093-1.093,1.093h-5.576c-0.612,0-1.093-0.503-1.093-1.093v-41.282
			c0-0.612,0.481-1.093,1.093-1.093h5.576c0.59,0,1.093,0.481,1.093,1.093v1.946c3.433-2.646,7.937-3.98,13.425-3.98
			c5.335,0,9.774,1.268,13.207,3.761C334.438,132.433,336.428,136.478,336.428,141.616z"/>
	</g>
	<g>
		<path fill="#78B72A" d="M380.486,157.993c0,4.81-2.23,8.44-6.647,10.845c-3.149,1.662-7.194,2.493-12.092,2.493
			c-13.6,0-20.51-6.298-20.51-18.739c0-0.612,0.503-1.093,1.093-1.093h5.751c0.59,0,1.093,0.481,1.093,1.093
			c0,4.133,0.962,7.084,2.886,8.79c1.946,1.727,5.226,2.602,9.774,2.602c3.148,0,5.707-0.459,7.609-1.399
			c2.099-1.05,3.127-2.537,3.127-4.526c0-2.405-2.383-4.154-7.019-5.204c-0.394-0.044-3.214-0.459-8.44-1.246
			c-9.358-1.4-14.103-5.576-14.103-12.42c0-4.439,1.924-7.937,5.751-10.408c3.214-2.012,7.085-3.039,11.567-3.039
			c13.141,0,19.854,5.685,19.919,16.88c0,0.285-0.131,0.569-0.328,0.787c-0.197,0.197-0.481,0.306-0.765,0.306h-5.838
			c-0.59,0-1.093-0.481-1.093-1.093c0-3.433-0.853-5.904-2.559-7.325c-1.749-1.465-4.767-2.208-8.921-2.208
			c-2.777,0-5.139,0.525-6.953,1.53c-1.924,1.159-2.843,2.646-2.843,4.504c0,0.875,0,3.498,6.8,4.701
			c1.421,0.284,4.329,0.765,8.921,1.53C375.829,146.907,380.486,151.171,380.486,157.993z"/>
	</g>
	<g>
		<path fill="#78B72A" d="M426.163,127.928v41.304c0,0.59-0.503,1.093-1.093,1.093h-5.576c-0.612,0-1.093-0.503-1.093-1.093v-2.077
			c-3.52,2.668-8.024,4.002-13.425,4.002c-5.707,0-10.299-1.378-13.688-4.133c-3.63-2.952-5.488-7.15-5.488-12.485v-26.61
			c0-0.59,0.503-1.093,1.093-1.093h5.576c0.612,0,1.093,0.503,1.093,1.093v26.457c0,6.45,3.629,9.446,11.414,9.446
			c4.482,0,7.915-1.268,10.167-3.783c2.165-2.318,3.258-5.619,3.258-9.861v-22.259c0-0.59,0.481-1.093,1.093-1.093h5.576
			C425.66,126.835,426.163,127.338,426.163,127.928z"/>
	</g>
	<g>
		<path fill="#78B72A" d="M440.091,111.901v57.244c0,0.59-0.503,1.093-1.093,1.093h-5.576c-0.612,0-1.093-0.503-1.093-1.093v-57.244
			c0-0.612,0.481-1.093,1.093-1.093h5.576C439.588,110.808,440.091,111.289,440.091,111.901z"/>
	</g>
	<g>
		<path fill="#78B72A" d="M467.51,129.371v5.16c0,0.59-0.481,1.093-1.093,1.093h-7.434v33.52c0,0.59-0.481,1.093-1.093,1.093h-5.576
			c-0.59,0-1.093-0.503-1.093-1.093v-33.52h-7.347c-0.59,0-1.093-0.503-1.093-1.093v-5.16c0-0.612,0.503-1.093,1.093-1.093h7.347
			v-10.976c0-0.612,0.503-1.093,1.093-1.093h5.576c0.612,0,1.093,0.481,1.093,1.093v10.976h7.434
			C467.029,128.278,467.51,128.759,467.51,129.371z"/>
	</g>
	<g>
		<path fill="#78B72A" d="M478.137,126.922v42.222c0,0.59-0.481,1.093-1.093,1.093h-5.576c-0.59,0-1.093-0.503-1.093-1.093v-42.222
			c0-0.59,0.503-1.093,1.093-1.093h5.576C477.656,125.829,478.137,126.332,478.137,126.922z"/>
		<path fill="#78B72A" d="M474.675,121.063h-0.838c-1.688,0-3.069-1.381-3.069-3.069v-4.883c0-1.688,1.381-3.069,3.069-3.069h0.838
			c1.688,0,3.069,1.381,3.069,3.069v4.883C477.744,119.682,476.363,121.063,474.675,121.063z"/>
	</g>
	<g>
		<path fill="#78B72A" d="M524.404,141.616v27.529c0,0.59-0.503,1.093-1.093,1.093h-5.576c-0.612,0-1.093-0.503-1.093-1.093v-26.698
			c0-3.061-0.94-5.292-2.886-6.866c-1.99-1.596-4.811-2.405-8.44-2.405c-4.22,0-7.587,1.181-9.949,3.542
			c-2.383,2.405-3.564,5.488-3.564,9.424v23.002c0,0.59-0.481,1.093-1.093,1.093h-5.554c-0.612,0-1.093-0.503-1.093-1.093v-41.282
			c0-0.612,0.481-1.093,1.093-1.093h5.554c0.612,0,1.093,0.481,1.093,1.093v1.946c3.455-2.646,7.959-3.98,13.447-3.98
			c5.335,0,9.774,1.268,13.207,3.761C522.392,132.433,524.404,136.478,524.404,141.616z"/>
	</g>
	<g>
		<path fill="#78B72A" d="M571.939,126.769h-5.576c-0.612,0-1.093,0.481-1.093,1.093v2.821c-3.783-3.214-8.571-4.854-14.278-4.854
			c-7.019,0-12.638,2.121-16.662,6.297c-4.001,4.154-6.035,9.621-6.035,16.246c0,6.45,1.99,11.829,5.947,15.94
			c3.98,4.154,9.402,6.253,16.159,6.253c5.904,0,10.889-1.64,14.868-4.854v1.137c0,7.522-4.592,11.151-14.016,11.151
			c-4.351,0-7.543-0.743-9.511-2.252c-1.902-1.465-3.039-3.936-3.345-7.391c-0.044-0.547-0.525-0.984-1.093-0.984h-5.554
			c-0.306,0-0.59,0.131-0.809,0.35c-0.196,0.219-0.306,0.503-0.284,0.809c0.35,6.494,2.777,11.107,7.194,13.71
			c3.476,2.055,7.959,3.105,13.316,3.105c14.497,0,21.865-6.188,21.865-18.41v-39.074
			C573.032,127.25,572.529,126.769,571.939,126.769z M561.269,159.218c-2.646,2.668-6.341,4.023-11.042,4.023
			c-4.614,0-8.09-1.399-10.648-4.286c-2.339-2.646-3.542-6.231-3.542-10.67c0-4.373,1.334-8.025,3.98-10.867
			c2.646-2.864,6.188-4.242,10.801-4.242c4.439,0,7.872,1.443,10.495,4.395c2.624,2.952,3.958,6.647,3.958,10.976
			C565.27,152.942,563.915,156.528,561.269,159.218z"/>
	</g>
</g>
</svg>
