<svg xmlns="http://www.w3.org/2000/svg" xmlns:xlink="http://www.w3.org/1999/xlink" width="500" zoomAndPan="magnify" viewBox="0 0 375 374.999991" height="500" preserveAspectRatio="xMidYMid meet" version="1.0"><defs><g/><clipPath id="ecc0084a9d"><path d="M 34 166 L 83.238281 166 L 83.238281 215.210938 L 34 215.210938 Z M 34 166 " clip-rule="nonzero"/></clipPath><clipPath id="8a726867ac"><path d="M 16.488281 148.460938 L 66 148.460938 L 66 198 L 16.488281 198 Z M 16.488281 148.460938 " clip-rule="nonzero"/></clipPath></defs><g clip-path="url(#ecc0084a9d)"><path fill="#004aad" d="M 72.140625 166.371094 L 72.140625 172.984375 L 76.820312 172.984375 L 76.820312 208.796875 L 41.007812 208.796875 L 41.007812 204.113281 L 34.398438 204.113281 L 34.398438 215.40625 L 83.433594 215.40625 L 83.433594 166.371094 Z M 72.140625 166.371094 " fill-opacity="1" fill-rule="nonzero"/></g><g clip-path="url(#8a726867ac)"><path fill="#bd3044" d="M 41.007812 197.5 L 65.527344 197.5 L 65.527344 148.464844 L 16.492188 148.464844 L 16.492188 197.5 Z M 58.914062 190.894531 L 41.007812 190.894531 L 41.007812 172.984375 L 58.914062 172.984375 Z M 23.101562 190.894531 L 23.101562 155.078125 L 58.914062 155.078125 L 58.914062 166.371094 L 34.398438 166.371094 L 34.398438 190.890625 Z M 23.101562 190.894531 " fill-opacity="1" fill-rule="nonzero"/></g><path fill="#004aad" d="M 46.164062 178.140625 L 53.757812 178.140625 L 53.757812 185.730469 L 46.164062 185.730469 Z M 46.164062 178.140625 " fill-opacity="1" fill-rule="nonzero"/><g fill="#004aad" fill-opacity="1"><g transform="translate(96.674785, 181.126073)"><g><path d="M 16.515625 -16.578125 L 5.859375 -16.578125 L 5.859375 -11.296875 L 15.40625 -11.296875 L 15.40625 -8.34375 L 5.859375 -8.34375 L 5.859375 -2.953125 L 16.859375 -2.953125 L 16.859375 0 L 2.5625 0 L 2.5625 -19.53125 L 16.515625 -19.53125 Z M 16.515625 -16.578125 "/></g></g></g><g fill="#004aad" fill-opacity="1"><g transform="translate(114.971071, 181.126073)"><g><path d="M 2.5625 -19.53125 L 10.359375 -19.53125 C 12.804688 -19.53125 14.703125 -18.945312 16.046875 -17.78125 C 17.398438 -16.625 18.078125 -14.984375 18.078125 -12.859375 C 18.078125 -10.648438 17.398438 -8.9375 16.046875 -7.71875 C 14.703125 -6.5 12.804688 -5.890625 10.359375 -5.890625 L 5.859375 -5.890625 L 5.859375 0 L 2.5625 0 Z M 5.859375 -16.578125 L 5.859375 -8.84375 L 10.21875 -8.84375 C 13.363281 -8.84375 14.9375 -10.15625 14.9375 -12.78125 C 14.9375 -15.3125 13.363281 -16.578125 10.21875 -16.578125 Z M 5.859375 -16.578125 "/></g></g></g><g fill="#004aad" fill-opacity="1"><g transform="translate(133.741497, 181.126073)"><g><path d="M 2.5625 -19.53125 L 11.046875 -19.53125 C 13.078125 -19.53125 14.675781 -19.097656 15.84375 -18.234375 C 17.019531 -17.367188 17.609375 -16.175781 17.609375 -14.65625 C 17.609375 -13.550781 17.300781 -12.613281 16.6875 -11.84375 C 16.070312 -11.070312 15.234375 -10.554688 14.171875 -10.296875 C 15.472656 -10.078125 16.492188 -9.53125 17.234375 -8.65625 C 17.984375 -7.78125 18.359375 -6.679688 18.359375 -5.359375 C 18.359375 -3.679688 17.722656 -2.367188 16.453125 -1.421875 C 15.191406 -0.472656 13.457031 0 11.25 0 L 2.5625 0 Z M 5.859375 -16.609375 L 5.859375 -11.4375 L 10.890625 -11.4375 C 11.929688 -11.4375 12.75 -11.671875 13.34375 -12.140625 C 13.9375 -12.609375 14.234375 -13.25 14.234375 -14.0625 C 14.234375 -14.882812 13.9375 -15.515625 13.34375 -15.953125 C 12.757812 -16.390625 11.941406 -16.609375 10.890625 -16.609375 Z M 5.859375 -8.546875 L 5.859375 -2.9375 L 10.890625 -2.9375 C 12.191406 -2.9375 13.195312 -3.179688 13.90625 -3.671875 C 14.625 -4.160156 14.984375 -4.863281 14.984375 -5.78125 C 14.984375 -6.632812 14.617188 -7.304688 13.890625 -7.796875 C 13.171875 -8.296875 12.171875 -8.546875 10.890625 -8.546875 Z M 5.859375 -8.546875 "/></g></g></g><g fill="#004aad" fill-opacity="1"><g transform="translate(153.432315, 181.126073)"><g><path d="M 8.984375 -19.671875 C 11.515625 -19.671875 13.796875 -19.003906 15.828125 -17.671875 L 14.453125 -14.765625 C 12.460938 -15.972656 10.554688 -16.578125 8.734375 -16.578125 C 7.742188 -16.578125 6.960938 -16.398438 6.390625 -16.046875 C 5.828125 -15.691406 5.546875 -15.1875 5.546875 -14.53125 C 5.546875 -13.882812 5.804688 -13.332031 6.328125 -12.875 C 6.847656 -12.414062 7.5 -12.078125 8.28125 -11.859375 C 9.0625 -11.648438 9.90625 -11.382812 10.8125 -11.0625 C 11.726562 -10.738281 12.578125 -10.394531 13.359375 -10.03125 C 14.148438 -9.664062 14.800781 -9.097656 15.3125 -8.328125 C 15.820312 -7.554688 16.078125 -6.625 16.078125 -5.53125 C 16.078125 -3.8125 15.390625 -2.441406 14.015625 -1.421875 C 12.648438 -0.398438 10.878906 0.109375 8.703125 0.109375 C 7.210938 0.109375 5.769531 -0.164062 4.375 -0.71875 C 2.976562 -1.28125 1.757812 -2.035156 0.71875 -2.984375 L 2.15625 -5.828125 C 3.132812 -4.921875 4.210938 -4.21875 5.390625 -3.71875 C 6.578125 -3.226562 7.703125 -2.984375 8.765625 -2.984375 C 9.921875 -2.984375 10.816406 -3.191406 11.453125 -3.609375 C 12.097656 -4.023438 12.421875 -4.609375 12.421875 -5.359375 C 12.421875 -6.023438 12.160156 -6.585938 11.640625 -7.046875 C 11.117188 -7.503906 10.46875 -7.835938 9.6875 -8.046875 C 8.90625 -8.265625 8.054688 -8.523438 7.140625 -8.828125 C 6.234375 -9.140625 5.390625 -9.46875 4.609375 -9.8125 C 3.828125 -10.15625 3.175781 -10.707031 2.65625 -11.46875 C 2.132812 -12.226562 1.875 -13.148438 1.875 -14.234375 C 1.875 -15.890625 2.523438 -17.207031 3.828125 -18.1875 C 5.128906 -19.175781 6.847656 -19.671875 8.984375 -19.671875 Z M 8.984375 -19.671875 "/></g></g></g><g fill="#004aad" fill-opacity="1"><g transform="translate(96.674785, 208.876071)"><g><path d="M 11.21875 -19.625 C 12.59375 -19.625 13.9375 -19.359375 15.25 -18.828125 C 16.5625 -18.296875 17.691406 -17.554688 18.640625 -16.609375 L 16.71875 -14.203125 C 16.007812 -14.960938 15.171875 -15.566406 14.203125 -16.015625 C 13.234375 -16.460938 12.257812 -16.6875 11.28125 -16.6875 C 9.320312 -16.6875 7.664062 -16.019531 6.3125 -14.6875 C 4.96875 -13.363281 4.296875 -11.742188 4.296875 -9.828125 C 4.296875 -7.890625 4.96875 -6.253906 6.3125 -4.921875 C 7.664062 -3.597656 9.320312 -2.9375 11.28125 -2.9375 C 13.300781 -2.9375 15.113281 -3.707031 16.71875 -5.25 L 18.671875 -3.0625 C 17.660156 -2.082031 16.484375 -1.300781 15.140625 -0.71875 C 13.804688 -0.144531 12.460938 0.140625 11.109375 0.140625 C 8.242188 0.140625 5.832031 -0.8125 3.875 -2.71875 C 1.925781 -4.625 0.953125 -6.984375 0.953125 -9.796875 C 0.953125 -12.566406 1.941406 -14.894531 3.921875 -16.78125 C 5.898438 -18.675781 8.332031 -19.625 11.21875 -19.625 Z M 11.21875 -19.625 "/></g></g></g><g fill="#004aad" fill-opacity="1"><g transform="translate(116.114588, 208.876071)"><g><path d="M 3.9375 -16.78125 C 5.925781 -18.675781 8.378906 -19.625 11.296875 -19.625 C 14.222656 -19.625 16.679688 -18.675781 18.671875 -16.78125 C 20.660156 -14.894531 21.65625 -12.554688 21.65625 -9.765625 C 21.65625 -6.972656 20.660156 -4.625 18.671875 -2.71875 C 16.679688 -0.8125 14.222656 0.140625 11.296875 0.140625 C 8.378906 0.140625 5.925781 -0.8125 3.9375 -2.71875 C 1.945312 -4.625 0.953125 -6.972656 0.953125 -9.765625 C 0.953125 -12.554688 1.945312 -14.894531 3.9375 -16.78125 Z M 11.328125 -16.65625 C 9.390625 -16.65625 7.734375 -15.988281 6.359375 -14.65625 C 4.984375 -13.332031 4.296875 -11.703125 4.296875 -9.765625 C 4.296875 -7.828125 4.988281 -6.179688 6.375 -4.828125 C 7.757812 -3.484375 9.410156 -2.8125 11.328125 -2.8125 C 13.242188 -2.8125 14.878906 -3.484375 16.234375 -4.828125 C 17.597656 -6.179688 18.28125 -7.828125 18.28125 -9.765625 C 18.28125 -11.703125 17.597656 -13.332031 16.234375 -14.65625 C 14.878906 -15.988281 13.242188 -16.65625 11.328125 -16.65625 Z M 11.328125 -16.65625 "/></g></g></g><g fill="#004aad" fill-opacity="1"><g transform="translate(138.706036, 208.876071)"><g><path d="M 19.5 0 L 16.265625 0 L 5.859375 -14.015625 L 5.859375 0 L 2.5625 0 L 2.5625 -19.53125 L 5.796875 -19.53125 L 16.265625 -5.5 L 16.265625 -19.53125 L 19.5 -19.53125 Z M 19.5 0 "/></g></g></g><g fill="#004aad" fill-opacity="1"><g transform="translate(160.795454, 208.876071)"><g><path d="M 8.984375 -19.671875 C 11.515625 -19.671875 13.796875 -19.003906 15.828125 -17.671875 L 14.453125 -14.765625 C 12.460938 -15.972656 10.554688 -16.578125 8.734375 -16.578125 C 7.742188 -16.578125 6.960938 -16.398438 6.390625 -16.046875 C 5.828125 -15.691406 5.546875 -15.1875 5.546875 -14.53125 C 5.546875 -13.882812 5.804688 -13.332031 6.328125 -12.875 C 6.847656 -12.414062 7.5 -12.078125 8.28125 -11.859375 C 9.0625 -11.648438 9.90625 -11.382812 10.8125 -11.0625 C 11.726562 -10.738281 12.578125 -10.394531 13.359375 -10.03125 C 14.148438 -9.664062 14.800781 -9.097656 15.3125 -8.328125 C 15.820312 -7.554688 16.078125 -6.625 16.078125 -5.53125 C 16.078125 -3.8125 15.390625 -2.441406 14.015625 -1.421875 C 12.648438 -0.398438 10.878906 0.109375 8.703125 0.109375 C 7.210938 0.109375 5.769531 -0.164062 4.375 -0.71875 C 2.976562 -1.28125 1.757812 -2.035156 0.71875 -2.984375 L 2.15625 -5.828125 C 3.132812 -4.921875 4.210938 -4.21875 5.390625 -3.71875 C 6.578125 -3.226562 7.703125 -2.984375 8.765625 -2.984375 C 9.921875 -2.984375 10.816406 -3.191406 11.453125 -3.609375 C 12.097656 -4.023438 12.421875 -4.609375 12.421875 -5.359375 C 12.421875 -6.023438 12.160156 -6.585938 11.640625 -7.046875 C 11.117188 -7.503906 10.46875 -7.835938 9.6875 -8.046875 C 8.90625 -8.265625 8.054688 -8.523438 7.140625 -8.828125 C 6.234375 -9.140625 5.390625 -9.46875 4.609375 -9.8125 C 3.828125 -10.15625 3.175781 -10.707031 2.65625 -11.46875 C 2.132812 -12.226562 1.875 -13.148438 1.875 -14.234375 C 1.875 -15.890625 2.523438 -17.207031 3.828125 -18.1875 C 5.128906 -19.175781 6.847656 -19.671875 8.984375 -19.671875 Z M 8.984375 -19.671875 "/></g></g></g><g fill="#004aad" fill-opacity="1"><g transform="translate(178.14346, 208.876071)"><g><path d="M 19.171875 -19.53125 L 19.171875 -8.09375 C 19.171875 -5.539062 18.414062 -3.53125 16.90625 -2.0625 C 15.40625 -0.59375 13.332031 0.140625 10.6875 0.140625 C 8.039062 0.140625 5.957031 -0.59375 4.4375 -2.0625 C 2.925781 -3.53125 2.171875 -5.539062 2.171875 -8.09375 L 2.171875 -19.53125 L 5.46875 -19.53125 L 5.46875 -8.09375 C 5.46875 -6.457031 5.9375 -5.164062 6.875 -4.21875 C 7.8125 -3.28125 9.09375 -2.8125 10.71875 -2.8125 C 12.3125 -2.8125 13.566406 -3.273438 14.484375 -4.203125 C 15.410156 -5.140625 15.875 -6.4375 15.875 -8.09375 L 15.875 -19.53125 Z M 19.171875 -19.53125 "/></g></g></g><g fill="#004aad" fill-opacity="1"><g transform="translate(199.451946, 208.876071)"><g><path d="M 5.859375 -2.984375 L 14.3125 -2.984375 L 14.3125 0 L 2.5625 0 L 2.5625 -19.53125 L 5.859375 -19.53125 Z M 5.859375 -2.984375 "/></g></g></g><g fill="#004aad" fill-opacity="1"><g transform="translate(214.345572, 208.876071)"><g><path d="M 15.90625 -16.578125 L 9.71875 -16.578125 L 9.71875 0 L 6.421875 0 L 6.421875 -16.578125 L 0.25 -16.578125 L 0.25 -19.53125 L 15.90625 -19.53125 Z M 15.90625 -16.578125 "/></g></g></g><g fill="#004aad" fill-opacity="1"><g transform="translate(230.494272, 208.876071)"><g><path d="M 5.859375 0 L 2.5625 0 L 2.5625 -19.53125 L 5.859375 -19.53125 Z M 5.859375 0 "/></g></g></g><g fill="#004aad" fill-opacity="1"><g transform="translate(238.91726, 208.876071)"><g><path d="M 19.5 0 L 16.265625 0 L 5.859375 -14.015625 L 5.859375 0 L 2.5625 0 L 2.5625 -19.53125 L 5.796875 -19.53125 L 16.265625 -5.5 L 16.265625 -19.53125 L 19.5 -19.53125 Z M 19.5 0 "/></g></g></g><g fill="#004aad" fill-opacity="1"><g transform="translate(261.006679, 208.876071)"><g><path d="M 15.9375 -9.59375 L 18.8125 -9.59375 L 18.8125 -2.40625 C 17.800781 -1.632812 16.613281 -1.015625 15.25 -0.546875 C 13.882812 -0.0859375 12.539062 0.140625 11.21875 0.140625 C 8.332031 0.140625 5.898438 -0.8125 3.921875 -2.71875 C 1.941406 -4.625 0.953125 -6.972656 0.953125 -9.765625 C 0.953125 -12.554688 1.953125 -14.894531 3.953125 -16.78125 C 5.960938 -18.675781 8.445312 -19.625 11.40625 -19.625 C 12.789062 -19.625 14.144531 -19.375 15.46875 -18.875 C 16.800781 -18.382812 17.953125 -17.722656 18.921875 -16.890625 L 17.046875 -14.453125 C 15.453125 -15.941406 13.570312 -16.6875 11.40625 -16.6875 C 9.414062 -16.6875 7.734375 -16.015625 6.359375 -14.671875 C 4.984375 -13.335938 4.296875 -11.703125 4.296875 -9.765625 C 4.296875 -7.816406 4.988281 -6.171875 6.375 -4.828125 C 7.757812 -3.484375 9.445312 -2.8125 11.4375 -2.8125 C 12.945312 -2.8125 14.445312 -3.257812 15.9375 -4.15625 Z M 15.9375 -9.59375 "/></g></g></g><g fill="#004aad" fill-opacity="1"><g transform="translate(281.901335, 208.876071)"><g/></g></g></svg>